<mxfile host="app.diagrams.net" modified="2023-08-14T03:38:57.176Z" agent="Mozilla/5.0 (Macintosh; Intel Mac OS X 10_15_7) AppleWebKit/605.1.15 (KHTML, like Gecko) Version/16.6 Safari/605.1.15" version="21.6.8" etag="gS92U46PUdWcOOCL95Ws" type="github">
  <diagram name="Page-1" id="pE1ZYoSJkTB25uU-hvox">
    <mxGraphModel>
      <root>
        <mxCell id="0" />
        <mxCell id="1" parent="0" />
      </root>
    </mxGraphModel>
  </diagram>
</mxfile>
